<svg version="1.1" xmlns="http://www.w3.org/2000/svg" xmlns:xlink="http://www.w3.org/1999/xlink" width="1153.9267578125" height="700"><defs/><g>6<g transform="translate(-150,-214) scale(1,1)"><rect fill="#C0C0C0" stroke="none" x="727" y="287" width="137.01953125" height="72" opacity="0.2"/></g><g transform="translate(-150,-214) scale(1,1)"><rect fill="#ffffff" stroke="none" x="720" y="280" width="137.01953125" height="72"/></g><g transform="translate(-150,-214) scale(1,1)"><path fill="none" stroke="#000000" d="M 720 280 L 857.01953125 280 L 857.01953125 352 L 720 352 L 720 280 Z Z" stroke-miterlimit="10"/></g><g transform="translate(-150,-214) scale(1,1)"><path fill="none" stroke="#000000" d="M 720 305 L 857.01953125 305" stroke-miterlimit="10"/></g><g transform="translate(-150,-214) scale(1,1)"><path fill="none" stroke="#000000" d="M 720 343 L 857.01953125 343" stroke-miterlimit="10"/></g><g transform="translate(-150,-214) scale(1,1)"><g><path fill="none" stroke="none"/><text fill="#000000" stroke="none" font-family="Arial" font-size="13px" font-style="normal" font-weight="bold" text-decoration="none" x="774.41796875" y="299.5">Gate</text></g></g><g transform="translate(-150,-214) scale(1,1)"><g><path fill="none" stroke="none"/><text fill="#000000" stroke="none" font-family="Arial" font-size="13px" font-style="normal" font-weight="normal" text-decoration="none" x="725" y="322.5">+CodiceGate: Varchar</text></g></g><g transform="translate(-150,-214) scale(1,1)"><g><path fill="none" stroke="none"/><text fill="#000000" stroke="none" font-family="Arial" font-size="13px" font-style="normal" font-weight="normal" text-decoration="none" x="725" y="337.5">+Stato: GateStatus</text></g></g><g transform="translate(-150,-214) scale(1,1)"><rect fill="#C0C0C0" stroke="none" x="687" y="447" width="167.1328125" height="147" opacity="0.2"/></g><g transform="translate(-150,-214) scale(1,1)"><rect fill="#ffffff" stroke="none" x="680" y="440" width="167.1328125" height="147"/></g><g transform="translate(-150,-214) scale(1,1)"><path fill="none" stroke="#000000" d="M 680 440 L 847.1328125 440 L 847.1328125 587 L 680 587 L 680 440 Z Z" stroke-miterlimit="10"/></g><g transform="translate(-150,-214) scale(1,1)"><path fill="none" stroke="#000000" d="M 680 465 L 847.1328125 465" stroke-miterlimit="10"/></g><g transform="translate(-150,-214) scale(1,1)"><path fill="none" stroke="#000000" d="M 680 578 L 847.1328125 578" stroke-miterlimit="10"/></g><g transform="translate(-150,-214) scale(1,1)"><g><path fill="none" stroke="none"/><text fill="#000000" stroke="none" font-family="Arial" font-size="13px" font-style="normal" font-weight="bold" text-decoration="none" x="746.830810546875" y="459.5">Tratta</text></g></g><g transform="translate(-150,-214) scale(1,1)"><g><path fill="none" stroke="none"/><text fill="#000000" stroke="none" font-family="Arial" font-size="13px" font-style="normal" font-weight="normal" text-decoration="none" x="685" y="482.5">+NumeroVolo: Varchar</text></g></g><g transform="translate(-150,-214) scale(1,1)"><g><path fill="none" stroke="none"/><text fill="#000000" stroke="none" font-family="Arial" font-size="13px" font-style="normal" font-weight="normal" text-decoration="none" x="685" y="497.5">+DataPartenza: Date</text></g></g><g transform="translate(-150,-214) scale(1,1)"><g><path fill="none" stroke="none"/><text fill="#000000" stroke="none" font-family="Arial" font-size="13px" font-style="normal" font-weight="normal" text-decoration="none" x="685" y="512.5">+OraPartenza: Time</text></g></g><g transform="translate(-150,-214) scale(1,1)"><g><path fill="none" stroke="none"/><text fill="#000000" stroke="none" font-family="Arial" font-size="13px" font-style="normal" font-weight="normal" text-decoration="none" x="685" y="527.5">+DurataVolo: Int</text></g></g><g transform="translate(-150,-214) scale(1,1)"><g><path fill="none" stroke="none"/><text fill="#000000" stroke="none" font-family="Arial" font-size="13px" font-style="normal" font-weight="normal" text-decoration="none" x="685" y="542.5">+Ritardo: Int</text></g></g><g transform="translate(-150,-214) scale(1,1)"><g><path fill="none" stroke="none"/><text fill="#000000" stroke="none" font-family="Arial" font-size="13px" font-style="normal" font-weight="normal" text-decoration="none" x="685" y="557.5">+Conclusa: Boolean</text></g></g><g transform="translate(-150,-214) scale(1,1)"><g><path fill="none" stroke="none"/><text fill="#000000" stroke="none" font-family="Arial" font-size="13px" font-style="normal" font-weight="normal" text-decoration="none" x="685" y="572.5">+Posti: Int</text></g></g><g transform="translate(-150,-214) scale(1,1)"><rect fill="#C0C0C0" stroke="none" x="503" y="231" width="144.73828125" height="117" opacity="0.2"/></g><g transform="translate(-150,-214) scale(1,1)"><rect fill="#ffffff" stroke="none" x="496" y="224" width="144.73828125" height="117"/></g><g transform="translate(-150,-214) scale(1,1)"><path fill="none" stroke="#000000" d="M 496 224 L 640.73828125 224 L 640.73828125 341 L 496 341 L 496 224 Z Z" stroke-miterlimit="10"/></g><g transform="translate(-150,-214) scale(1,1)"><path fill="none" stroke="#000000" d="M 496 249 L 640.73828125 249" stroke-miterlimit="10"/></g><g transform="translate(-150,-214) scale(1,1)"><path fill="none" stroke="#000000" d="M 496 332 L 640.73828125 332" stroke-miterlimit="10"/></g><g transform="translate(-150,-214) scale(1,1)"><g><path fill="none" stroke="none"/><text fill="#000000" stroke="none" font-family="Arial" font-size="13px" font-style="normal" font-weight="bold" text-decoration="none" x="529.35009765625" y="243.5">CodaImbarco</text></g></g><g transform="translate(-150,-214) scale(1,1)"><g><path fill="none" stroke="none"/><text fill="#000000" stroke="none" font-family="Arial" font-size="13px" font-style="normal" font-weight="normal" text-decoration="none" x="501" y="266.5">+CodiceCoda: Int</text></g></g><g transform="translate(-150,-214) scale(1,1)"><g><path fill="none" stroke="none"/><text fill="#000000" stroke="none" font-family="Arial" font-size="13px" font-style="normal" font-weight="normal" text-decoration="none" x="501" y="281.5">+OraApertura</text></g></g><g transform="translate(-150,-214) scale(1,1)"><g><path fill="none" stroke="none"/><text fill="#000000" stroke="none" font-family="Arial" font-size="13px" font-style="normal" font-weight="normal" text-decoration="none" x="501" y="296.5">+TempoStimato: Time</text></g></g><g transform="translate(-150,-214) scale(1,1)"><g><path fill="none" stroke="none"/><text fill="#000000" stroke="none" font-family="Arial" font-size="13px" font-style="normal" font-weight="normal" text-decoration="none" x="501" y="311.5">+TempoEffettivo: Time</text></g></g><g transform="translate(-150,-214) scale(1,1)"><g><path fill="none" stroke="none"/><text fill="#000000" stroke="none" font-family="Arial" font-size="13px" font-style="normal" font-weight="normal" text-decoration="none" x="501" y="326.5">+Classe: EnumCoda</text></g></g><g transform="translate(-150,-214) scale(1,1)"><rect fill="#C0C0C0" stroke="none" x="983" y="455" width="161.1279296875" height="117" opacity="0.2"/></g><g transform="translate(-150,-214) scale(1,1)"><rect fill="#ffffff" stroke="none" x="976" y="448" width="161.1279296875" height="117"/></g><g transform="translate(-150,-214) scale(1,1)"><path fill="none" stroke="#000000" d="M 976 448 L 1137.1279296875 448 L 1137.1279296875 565 L 976 565 L 976 448 Z Z" stroke-miterlimit="10"/></g><g transform="translate(-150,-214) scale(1,1)"><path fill="none" stroke="#000000" d="M 976 473 L 1137.1279296875 473" stroke-miterlimit="10"/></g><g transform="translate(-150,-214) scale(1,1)"><path fill="none" stroke="#000000" d="M 976 556 L 1137.1279296875 556" stroke-miterlimit="10"/></g><g transform="translate(-150,-214) scale(1,1)"><g><path fill="none" stroke="none"/><text fill="#000000" stroke="none" font-family="Arial" font-size="13px" font-style="normal" font-weight="bold" text-decoration="none" x="1005.976318359375" y="467.5">CompagniaAerea</text></g></g><g transform="translate(-150,-214) scale(1,1)"><g><path fill="none" stroke="none"/><text fill="#000000" stroke="none" font-family="Arial" font-size="13px" font-style="normal" font-weight="normal" text-decoration="none" x="981" y="490.5">+Nome: Varchar</text></g></g><g transform="translate(-150,-214) scale(1,1)"><g><path fill="none" stroke="none"/><text fill="#000000" stroke="none" font-family="Arial" font-size="13px" font-style="normal" font-weight="normal" text-decoration="none" x="981" y="505.5">+Sigla: Varchar</text></g></g><g transform="translate(-150,-214) scale(1,1)"><g><path fill="none" stroke="none"/><text fill="#000000" stroke="none" font-family="Arial" font-size="13px" font-style="normal" font-weight="normal" text-decoration="none" x="981" y="520.5">+Nazione: Varchar</text></g></g><g transform="translate(-150,-214) scale(1,1)"><g><path fill="none" stroke="none"/><text fill="#000000" stroke="none" font-family="Arial" font-size="13px" font-style="normal" font-weight="normal" text-decoration="none" x="981" y="535.5">+PesoMassimo: Real</text></g></g><g transform="translate(-150,-214) scale(1,1)"><g><path fill="none" stroke="none"/><text fill="#000000" stroke="none" font-family="Arial" font-size="13px" font-style="normal" font-weight="normal" text-decoration="none" x="981" y="550.5">+PrezzoBagagli: Real</text></g></g><g transform="translate(-150,-214) scale(1,1)"><rect fill="#C0C0C0" stroke="none" x="311" y="655" width="125.34619140625" height="105" opacity="0.2"/></g><g transform="translate(-150,-214) scale(1,1)"><rect fill="#ffffff" stroke="none" x="304" y="648" width="125.34619140625" height="105"/></g><g transform="translate(-150,-214) scale(1,1)"><path fill="none" stroke="#000000" d="M 304 648 L 429.34619140625 648 L 429.34619140625 753 L 304 753 L 304 648 Z Z" stroke-miterlimit="10"/></g><g transform="translate(-150,-214) scale(1,1)"><path fill="none" stroke="#000000" d="M 304 686 L 429.34619140625 686" stroke-miterlimit="10"/></g><g transform="translate(-150,-214) scale(1,1)"><g><path fill="none" stroke="none"/><text fill="#000000" stroke="none" font-family="Arial" font-size="13px" font-style="normal" font-weight="normal" text-decoration="none" x="323.30908203125" y="665.5">«enumeration»</text></g></g><g transform="translate(-150,-214) scale(1,1)"><g><path fill="none" stroke="none"/><text fill="#000000" stroke="none" font-family="Arial" font-size="13px" font-style="normal" font-weight="bold" text-decoration="none" x="336.328125" y="680.5">EnumCittà</text></g></g><g transform="translate(-150,-214) scale(1,1)"><g><path fill="none" stroke="none"/><text fill="#000000" stroke="none" font-family="Arial" font-size="13px" font-style="normal" font-weight="normal" text-decoration="none" x="309" y="703.5">Milano</text></g></g><g transform="translate(-150,-214) scale(1,1)"><g><path fill="none" stroke="none"/><text fill="#000000" stroke="none" font-family="Arial" font-size="13px" font-style="normal" font-weight="normal" text-decoration="none" x="309" y="718.5">Napoli</text></g></g><g transform="translate(-150,-214) scale(1,1)"><g><path fill="none" stroke="none"/><text fill="#000000" stroke="none" font-family="Arial" font-size="13px" font-style="normal" font-weight="normal" text-decoration="none" x="309" y="733.5">Londra</text></g></g><g transform="translate(-150,-214) scale(1,1)"><g><path fill="none" stroke="none"/><text fill="#000000" stroke="none" font-family="Arial" font-size="13px" font-style="normal" font-weight="normal" text-decoration="none" x="309" y="748.5">...</text></g></g><g transform="translate(-150,-214) scale(1,1)"><rect fill="#C0C0C0" stroke="none" x="1135" y="663" width="165.9267578125" height="132" opacity="0.2"/></g><g transform="translate(-150,-214) scale(1,1)"><rect fill="#ffffff" stroke="none" x="1128" y="656" width="165.9267578125" height="132"/></g><g transform="translate(-150,-214) scale(1,1)"><path fill="none" stroke="#000000" d="M 1128 656 L 1293.9267578125 656 L 1293.9267578125 788 L 1128 788 L 1128 656 Z Z" stroke-miterlimit="10"/></g><g transform="translate(-150,-214) scale(1,1)"><path fill="none" stroke="#000000" d="M 1128 681 L 1293.9267578125 681" stroke-miterlimit="10"/></g><g transform="translate(-150,-214) scale(1,1)"><path fill="none" stroke="#000000" d="M 1128 779 L 1293.9267578125 779" stroke-miterlimit="10"/></g><g transform="translate(-150,-214) scale(1,1)"><g><path fill="none" stroke="none"/><text fill="#000000" stroke="none" font-family="Arial" font-size="13px" font-style="normal" font-weight="bold" text-decoration="none" x="1177.71435546875" y="675.5">Dipendente</text></g></g><g transform="translate(-150,-214) scale(1,1)"><g><path fill="none" stroke="none"/><text fill="#000000" stroke="none" font-family="Arial" font-size="13px" font-style="normal" font-weight="normal" text-decoration="none" x="1133" y="698.5">+CodiceImpiegato: Varchar</text></g></g><g transform="translate(-150,-214) scale(1,1)"><g><path fill="none" stroke="none"/><text fill="#000000" stroke="none" font-family="Arial" font-size="13px" font-style="normal" font-weight="normal" text-decoration="none" x="1133" y="713.5">+Nome: Varchar</text></g></g><g transform="translate(-150,-214) scale(1,1)"><g><path fill="none" stroke="none"/><text fill="#000000" stroke="none" font-family="Arial" font-size="13px" font-style="normal" font-weight="normal" text-decoration="none" x="1133" y="728.5">+Cognome: Varchar</text></g></g><g transform="translate(-150,-214) scale(1,1)"><g><path fill="none" stroke="none"/><text fill="#000000" stroke="none" font-family="Arial" font-size="13px" font-style="normal" font-weight="normal" text-decoration="none" x="1133" y="743.5">+Email: Varchar</text></g></g><g transform="translate(-150,-214) scale(1,1)"><g><path fill="none" stroke="none"/><text fill="#000000" stroke="none" font-family="Arial" font-size="13px" font-style="normal" font-weight="normal" text-decoration="none" x="1133" y="758.5">+Password: Varchar</text></g></g><g transform="translate(-150,-214) scale(1,1)"><g><path fill="none" stroke="none"/><text fill="#000000" stroke="none" font-family="Arial" font-size="13px" font-style="normal" font-weight="normal" text-decoration="none" x="1133" y="773.5">+Ruolo: EnumRuoli</text></g></g><g transform="translate(-150,-214) scale(1,1)"><rect fill="#C0C0C0" stroke="none" x="415" y="431" width="155.0849609375" height="162" opacity="0.2"/></g><g transform="translate(-150,-214) scale(1,1)"><rect fill="#ffffff" stroke="none" x="408" y="424" width="155.0849609375" height="162"/></g><g transform="translate(-150,-214) scale(1,1)"><path fill="none" stroke="#000000" d="M 408 424 L 563.0849609375 424 L 563.0849609375 586 L 408 586 L 408 424 Z Z" stroke-miterlimit="10"/></g><g transform="translate(-150,-214) scale(1,1)"><path fill="none" stroke="#000000" d="M 408 449 L 563.0849609375 449" stroke-miterlimit="10"/></g><g transform="translate(-150,-214) scale(1,1)"><path fill="none" stroke="#000000" d="M 408 577 L 563.0849609375 577" stroke-miterlimit="10"/></g><g transform="translate(-150,-214) scale(1,1)"><g><path fill="none" stroke="none"/><text fill="#000000" stroke="none" font-family="Arial" font-size="13px" font-style="normal" font-weight="bold" text-decoration="none" x="462.41796875" y="443.5">Biglietto</text></g></g><g transform="translate(-150,-214) scale(1,1)"><g><path fill="none" stroke="none"/><text fill="#000000" stroke="none" font-family="Arial" font-size="13px" font-style="normal" font-weight="normal" text-decoration="none" x="413" y="466.5">+CodiceBiglietto: Int</text></g></g><g transform="translate(-150,-214) scale(1,1)"><g><path fill="none" stroke="none"/><text fill="#000000" stroke="none" font-family="Arial" font-size="13px" font-style="normal" font-weight="normal" text-decoration="none" x="413" y="481.5">+Prezzo: Real</text></g></g><g transform="translate(-150,-214) scale(1,1)"><g><path fill="none" stroke="none"/><text fill="#000000" stroke="none" font-family="Arial" font-size="13px" font-style="normal" font-weight="normal" text-decoration="none" x="413" y="496.5">+Posto: Int</text></g></g><g transform="translate(-150,-214) scale(1,1)"><g><path fill="none" stroke="none"/><text fill="#000000" stroke="none" font-family="Arial" font-size="13px" font-style="normal" font-weight="normal" text-decoration="none" x="413" y="511.5">+CF: Varchar</text></g></g><g transform="translate(-150,-214) scale(1,1)"><g><path fill="none" stroke="none"/><text fill="#000000" stroke="none" font-family="Arial" font-size="13px" font-style="normal" font-weight="normal" text-decoration="none" x="413" y="526.5">+NomeCliente: Varchar</text></g></g><g transform="translate(-150,-214) scale(1,1)"><g><path fill="none" stroke="none"/><text fill="#000000" stroke="none" font-family="Arial" font-size="13px" font-style="normal" font-weight="normal" text-decoration="none" x="413" y="541.5">+Documento: Varchar</text></g></g><g transform="translate(-150,-214) scale(1,1)"><g><path fill="none" stroke="none"/><text fill="#000000" stroke="none" font-family="Arial" font-size="13px" font-style="normal" font-weight="normal" text-decoration="none" x="413" y="556.5">+Imbarcato: Boolean</text></g></g><g transform="translate(-150,-214) scale(1,1)"><g><path fill="none" stroke="none"/><text fill="#000000" stroke="none" font-family="Arial" font-size="13px" font-style="normal" font-weight="normal" text-decoration="none" x="413" y="571.5">+CheckIn: Boolean</text></g></g><g transform="translate(-150,-214) scale(1,1)"><path fill="none" stroke="#000000" d="M 719 305 L 642 293" stroke-miterlimit="10"/></g><g transform="translate(-150,-214) scale(1,1)"><g><path fill="none" stroke="none"/><text fill="#000000" stroke="none" font-family="Arial" font-size="13px" font-style="normal" font-weight="normal" text-decoration="none" x="668.5" y="319.5">+in</text></g></g><g transform="translate(-150,-214) scale(1,1)"><g><path fill="none" stroke="none"/><text fill="#000000" stroke="none" font-family="Arial" font-size="13px" font-style="normal" font-weight="normal" text-decoration="none" x="695.726806640625" y="295.5">1</text></g></g><g transform="translate(-150,-214) scale(1,1)"><g><path fill="none" stroke="none"/><text fill="#000000" stroke="none" font-family="Arial" font-size="13px" font-style="normal" font-weight="normal" text-decoration="none" x="662.220458984375" y="289.5">*</text></g></g><g transform="translate(-150,-214) scale(1,1)"><path fill="none" stroke="#000000" d="M 783 353 L 772 439" stroke-miterlimit="10"/></g><g transform="translate(-150,-214) scale(1,1)"><g><path fill="none" stroke="none"/><text fill="#000000" stroke="none" font-family="Arial" font-size="13px" font-style="normal" font-weight="normal" text-decoration="none" x="763.5" y="378.5">1</text></g></g><g transform="translate(-150,-214) scale(1,1)"><g><path fill="none" stroke="none"/><text fill="#000000" stroke="none" font-family="Arial" font-size="13px" font-style="normal" font-weight="normal" text-decoration="none" x="759.220458984375" y="421.5">*</text></g></g><g transform="translate(-150,-214) scale(1,1)"><path fill="none" stroke="#000000" d="M 1162 655 L 1099 566" stroke-miterlimit="10"/></g><g transform="translate(-150,-214) scale(1,1)"><g><path fill="none" stroke="none"/><text fill="#000000" stroke="none" font-family="Arial" font-size="13px" font-style="normal" font-weight="normal" text-decoration="none" x="1093.5" y="624.5">+Lavoro</text></g></g><g transform="translate(-150,-214) scale(1,1)"><g><path fill="none" stroke="none"/><text fill="#000000" stroke="none" font-family="Arial" font-size="13px" font-style="normal" font-weight="normal" text-decoration="none" x="1156.726806640625" y="636.5">*</text></g></g><g transform="translate(-150,-214) scale(1,1)"><g><path fill="none" stroke="none"/><text fill="#000000" stroke="none" font-family="Arial" font-size="13px" font-style="normal" font-weight="normal" text-decoration="none" x="1110.5" y="582.5">0..1</text></g></g><g transform="translate(-150,-214) scale(1,1)"><path fill="none" stroke="#000000" d="M 848 511 L 975 508" stroke-miterlimit="10"/></g><g transform="translate(-150,-214) scale(1,1)"><g><path fill="none" stroke="none"/><text fill="#000000" stroke="none" font-family="Arial" font-size="13px" font-style="normal" font-weight="normal" text-decoration="none" x="882.5" y="500.5">+gestisce</text></g></g><g transform="translate(-150,-214) scale(1,1)"><g><path fill="none" stroke="none"/><text fill="#000000" stroke="none" font-family="Arial" font-size="13px" font-style="normal" font-weight="normal" text-decoration="none" x="866.220458984375" y="528.5">*</text></g></g><g transform="translate(-150,-214) scale(1,1)"><g><path fill="none" stroke="none"/><text fill="#000000" stroke="none" font-family="Arial" font-size="13px" font-style="normal" font-weight="normal" text-decoration="none" x="949.5" y="527.5">1</text></g></g><g transform="translate(-150,-214) scale(1,1)"><path fill="none" stroke="#000000" d="M 564 507 L 679 511" stroke-miterlimit="10"/></g><g transform="translate(-150,-214) scale(1,1)"><g><path fill="none" stroke="none"/><text fill="#000000" stroke="none" font-family="Arial" font-size="13px" font-style="normal" font-weight="normal" text-decoration="none" x="607.5" y="500.5">+per</text></g></g><g transform="translate(-150,-214) scale(1,1)"><g><path fill="none" stroke="none"/><text fill="#000000" stroke="none" font-family="Arial" font-size="13px" font-style="normal" font-weight="normal" text-decoration="none" x="582.58544921875" y="526.5">*</text></g></g><g transform="translate(-150,-214) scale(1,1)"><g><path fill="none" stroke="none"/><text fill="#000000" stroke="none" font-family="Arial" font-size="13px" font-style="normal" font-weight="normal" text-decoration="none" x="652.5" y="528.5">1</text></g></g><g transform="translate(-150,-214) scale(1,1)"><rect fill="#C0C0C0" stroke="none" x="167" y="655" width="125.34619140625" height="120" opacity="0.2"/></g><g transform="translate(-150,-214) scale(1,1)"><rect fill="#ffffff" stroke="none" x="160" y="648" width="125.34619140625" height="120"/></g><g transform="translate(-150,-214) scale(1,1)"><path fill="none" stroke="#000000" d="M 160 648 L 285.34619140625 648 L 285.34619140625 768 L 160 768 L 160 648 Z Z" stroke-miterlimit="10"/></g><g transform="translate(-150,-214) scale(1,1)"><path fill="none" stroke="#000000" d="M 160 686 L 285.34619140625 686" stroke-miterlimit="10"/></g><g transform="translate(-150,-214) scale(1,1)"><g><path fill="none" stroke="none"/><text fill="#000000" stroke="none" font-family="Arial" font-size="13px" font-style="normal" font-weight="normal" text-decoration="none" x="179.30908203125" y="665.5">«enumeration»</text></g></g><g transform="translate(-150,-214) scale(1,1)"><g><path fill="none" stroke="none"/><text fill="#000000" stroke="none" font-family="Arial" font-size="13px" font-style="normal" font-weight="bold" text-decoration="none" x="190.154052734375" y="680.5">EnumCoda</text></g></g><g transform="translate(-150,-214) scale(1,1)"><g><path fill="none" stroke="none"/><text fill="#000000" stroke="none" font-family="Arial" font-size="13px" font-style="normal" font-weight="normal" text-decoration="none" x="165" y="703.5">Famiglie</text></g></g><g transform="translate(-150,-214) scale(1,1)"><g><path fill="none" stroke="none"/><text fill="#000000" stroke="none" font-family="Arial" font-size="13px" font-style="normal" font-weight="normal" text-decoration="none" x="165" y="718.5">DiversamenteAbili</text></g></g><g transform="translate(-150,-214) scale(1,1)"><g><path fill="none" stroke="none"/><text fill="#000000" stroke="none" font-family="Arial" font-size="13px" font-style="normal" font-weight="normal" text-decoration="none" x="165" y="733.5">Priority</text></g></g><g transform="translate(-150,-214) scale(1,1)"><g><path fill="none" stroke="none"/><text fill="#000000" stroke="none" font-family="Arial" font-size="13px" font-style="normal" font-weight="normal" text-decoration="none" x="165" y="748.5">BusinessClass</text></g></g><g transform="translate(-150,-214) scale(1,1)"><g><path fill="none" stroke="none"/><text fill="#000000" stroke="none" font-family="Arial" font-size="13px" font-style="normal" font-weight="normal" text-decoration="none" x="165" y="763.5">Economy</text></g></g><g transform="translate(-150,-214) scale(1,1)"><rect fill="#C0C0C0" stroke="none" x="167" y="471" width="159.43310546875" height="87" opacity="0.2"/></g><g transform="translate(-150,-214) scale(1,1)"><rect fill="#ffffff" stroke="none" x="160" y="464" width="159.43310546875" height="87"/></g><g transform="translate(-150,-214) scale(1,1)"><path fill="none" stroke="#000000" d="M 160 464 L 319.43310546875 464 L 319.43310546875 551 L 160 551 L 160 464 Z Z" stroke-miterlimit="10"/></g><g transform="translate(-150,-214) scale(1,1)"><path fill="none" stroke="#000000" d="M 160 489 L 319.43310546875 489" stroke-miterlimit="10"/></g><g transform="translate(-150,-214) scale(1,1)"><path fill="none" stroke="#000000" d="M 160 542 L 319.43310546875 542" stroke-miterlimit="10"/></g><g transform="translate(-150,-214) scale(1,1)"><g><path fill="none" stroke="none"/><text fill="#000000" stroke="none" font-family="Arial" font-size="13px" font-style="normal" font-weight="bold" text-decoration="none" x="214.41796875" y="483.5">Bagaglio</text></g></g><g transform="translate(-150,-214) scale(1,1)"><g><path fill="none" stroke="none"/><text fill="#000000" stroke="none" font-family="Arial" font-size="13px" font-style="normal" font-weight="normal" text-decoration="none" x="165" y="506.5">+CodiceBagaglio: Varchar</text></g></g><g transform="translate(-150,-214) scale(1,1)"><g><path fill="none" stroke="none"/><text fill="#000000" stroke="none" font-family="Arial" font-size="13px" font-style="normal" font-weight="normal" text-decoration="none" x="165" y="521.5">+Peso: Real</text></g></g><g transform="translate(-150,-214) scale(1,1)"><g><path fill="none" stroke="none"/><text fill="#000000" stroke="none" font-family="Arial" font-size="13px" font-style="normal" font-weight="normal" text-decoration="none" x="165" y="536.5">+Prezzo: Real</text></g></g><g transform="translate(-150,-214) scale(1,1)"><path fill="none" stroke="#000000" d="M 320 506 L 407 506" stroke-miterlimit="10"/></g><g transform="translate(-150,-214) scale(1,1)"><g><path fill="none" stroke="none"/><text fill="#000000" stroke="none" font-family="Arial" font-size="13px" font-style="normal" font-weight="normal" text-decoration="none" x="331.5" y="524.5">0..*</text></g></g><g transform="translate(-150,-214) scale(1,1)"><g><path fill="none" stroke="none"/><text fill="#000000" stroke="none" font-family="Arial" font-size="13px" font-style="normal" font-weight="normal" text-decoration="none" x="381.5" y="524.5">1</text></g></g><g transform="translate(-150,-214) scale(1,1)"><rect fill="#C0C0C0" stroke="none" x="663" y="687" width="173.15673828125" height="87" opacity="0.2"/></g><g transform="translate(-150,-214) scale(1,1)"><rect fill="#ffffff" stroke="none" x="656" y="680" width="173.15673828125" height="87"/></g><g transform="translate(-150,-214) scale(1,1)"><path fill="none" stroke="#000000" d="M 656 680 L 829.15673828125 680 L 829.15673828125 767 L 656 767 L 656 680 Z Z" stroke-miterlimit="10"/></g><g transform="translate(-150,-214) scale(1,1)"><path fill="none" stroke="#000000" d="M 656 705 L 829.15673828125 705" stroke-miterlimit="10"/></g><g transform="translate(-150,-214) scale(1,1)"><path fill="none" stroke="#000000" d="M 656 758 L 829.15673828125 758" stroke-miterlimit="10"/></g><g transform="translate(-150,-214) scale(1,1)"><g><path fill="none" stroke="none"/><text fill="#000000" stroke="none" font-family="Arial" font-size="13px" font-style="normal" font-weight="bold" text-decoration="none" x="714.032958984375" y="699.5">Aeroporto</text></g></g><g transform="translate(-150,-214) scale(1,1)"><g><path fill="none" stroke="none"/><text fill="#000000" stroke="none" font-family="Arial" font-size="13px" font-style="normal" font-weight="normal" text-decoration="none" x="661" y="722.5">+CodiceAereoporto: Varchar</text></g></g><g transform="translate(-150,-214) scale(1,1)"><g><path fill="none" stroke="none"/><text fill="#000000" stroke="none" font-family="Arial" font-size="13px" font-style="normal" font-weight="normal" text-decoration="none" x="661" y="737.5">+Nome: Varchar</text></g></g><g transform="translate(-150,-214) scale(1,1)"><g><path fill="none" stroke="none"/><text fill="#000000" stroke="none" font-family="Arial" font-size="13px" font-style="normal" font-weight="normal" text-decoration="none" x="661" y="752.5">+Città: EnumCittà</text></g></g><g transform="translate(-150,-214) scale(1,1)"><path fill="none" stroke="#000000" d="M 788 588 L 808 648 L 781 679" stroke-miterlimit="10"/></g><g transform="translate(-150,-214) scale(1,1)"><g><path fill="none" stroke="none"/><text fill="#000000" stroke="none" font-family="Arial" font-size="13px" font-style="normal" font-weight="normal" text-decoration="none" x="804.725341796875" y="631.5">+Arrivo</text></g></g><g transform="translate(-150,-214) scale(1,1)"><g><path fill="none" stroke="none"/><text fill="#000000" stroke="none" font-family="Arial" font-size="13px" font-style="normal" font-weight="normal" text-decoration="none" x="779.220458984375" y="618.5">*</text></g></g><g transform="translate(-150,-214) scale(1,1)"><g><path fill="none" stroke="none"/><text fill="#000000" stroke="none" font-family="Arial" font-size="13px" font-style="normal" font-weight="normal" text-decoration="none" x="781.5" y="660.5">1</text></g></g><g transform="translate(-150,-214) scale(1,1)"><path fill="none" stroke="#000000" d="M 731 588 L 712 632 L 727 679" stroke-miterlimit="10"/></g><g transform="translate(-150,-214) scale(1,1)"><g><path fill="none" stroke="none"/><text fill="#000000" stroke="none" font-family="Arial" font-size="13px" font-style="normal" font-weight="normal" text-decoration="none" x="646.5" y="647.5">+Partenza</text></g></g><g transform="translate(-150,-214) scale(1,1)"><g><path fill="none" stroke="none"/><text fill="#000000" stroke="none" font-family="Arial" font-size="13px" font-style="normal" font-weight="normal" text-decoration="none" x="727.220458984375" y="613.5">*</text></g></g><g transform="translate(-150,-214) scale(1,1)"><g><path fill="none" stroke="none"/><text fill="#000000" stroke="none" font-family="Arial" font-size="13px" font-style="normal" font-weight="normal" text-decoration="none" x="704.5" y="668.5">1</text></g></g><g transform="translate(-150,-214) scale(1,1)"><path fill="none" stroke="#000000" d="M 516 423 L 546 342" stroke-miterlimit="10"/></g><g transform="translate(-150,-214) scale(1,1)"><g><path fill="none" stroke="none"/><text fill="#000000" stroke="none" font-family="Arial" font-size="13px" font-style="normal" font-weight="normal" text-decoration="none" x="532.220458984375" y="413.5">*</text></g></g><g transform="translate(-150,-214) scale(1,1)"><g><path fill="none" stroke="none"/><text fill="#000000" stroke="none" font-family="Arial" font-size="13px" font-style="normal" font-weight="normal" text-decoration="none" x="546.5" y="372.5">1</text></g></g><g transform="translate(-150,-214) scale(1,1)"><path fill="none" stroke="#000000" d="M 619 342 L 701 439" stroke-miterlimit="10"/></g><g transform="translate(-150,-214) scale(1,1)"><g><path fill="none" stroke="none"/><text fill="#000000" stroke="none" font-family="Arial" font-size="13px" font-style="normal" font-weight="normal" text-decoration="none" x="620.220458984375" y="372.5">*</text></g></g><g transform="translate(-150,-214) scale(1,1)"><g><path fill="none" stroke="none"/><text fill="#000000" stroke="none" font-family="Arial" font-size="13px" font-style="normal" font-weight="normal" text-decoration="none" x="673.5" y="436.5">1</text></g></g><g transform="translate(-150,-214) scale(1,1)"><rect fill="#C0C0C0" stroke="none" x="311" y="791" width="108.734375" height="120" opacity="0.2"/></g><g transform="translate(-150,-214) scale(1,1)"><rect fill="#ffffff" stroke="none" x="304" y="784" width="108.734375" height="120"/></g><g transform="translate(-150,-214) scale(1,1)"><path fill="none" stroke="#000000" d="M 304 784 L 412.734375 784 L 412.734375 904 L 304 904 L 304 784 Z Z" stroke-miterlimit="10"/></g><g transform="translate(-150,-214) scale(1,1)"><path fill="none" stroke="#000000" d="M 304 822 L 412.734375 822" stroke-miterlimit="10"/></g><g transform="translate(-150,-214) scale(1,1)"><g><path fill="none" stroke="none"/><text fill="#000000" stroke="none" font-family="Arial" font-size="13px" font-style="normal" font-weight="normal" text-decoration="none" x="315.003173828125" y="801.5">«enumeration»</text></g></g><g transform="translate(-150,-214) scale(1,1)"><g><path fill="none" stroke="none"/><text fill="#000000" stroke="none" font-family="Arial" font-size="13px" font-style="normal" font-weight="bold" text-decoration="none" x="326.574951171875" y="816.5">EnumRuoli</text></g></g><g transform="translate(-150,-214) scale(1,1)"><g><path fill="none" stroke="none"/><text fill="#000000" stroke="none" font-family="Arial" font-size="13px" font-style="normal" font-weight="normal" text-decoration="none" x="309" y="839.5">Amministratore</text></g></g><g transform="translate(-150,-214) scale(1,1)"><g><path fill="none" stroke="none"/><text fill="#000000" stroke="none" font-family="Arial" font-size="13px" font-style="normal" font-weight="normal" text-decoration="none" x="309" y="854.5">TicketAgent</text></g></g><g transform="translate(-150,-214) scale(1,1)"><g><path fill="none" stroke="none"/><text fill="#000000" stroke="none" font-family="Arial" font-size="13px" font-style="normal" font-weight="normal" text-decoration="none" x="309" y="869.5">AddettoCheckIn</text></g></g><g transform="translate(-150,-214) scale(1,1)"><g><path fill="none" stroke="none"/><text fill="#000000" stroke="none" font-family="Arial" font-size="13px" font-style="normal" font-weight="normal" text-decoration="none" x="309" y="884.5">AddettoImbarco</text></g></g><g transform="translate(-150,-214) scale(1,1)"><g><path fill="none" stroke="none"/><text fill="#000000" stroke="none" font-family="Arial" font-size="13px" font-style="normal" font-weight="normal" text-decoration="none" x="309" y="899.5">ResponsabileVoli</text></g></g><g transform="translate(-150,-214) scale(1,1)"><rect fill="#C0C0C0" stroke="none" x="167" y="807" width="95.72802734375" height="90" opacity="0.2"/></g><g transform="translate(-150,-214) scale(1,1)"><rect fill="#ffffff" stroke="none" x="160" y="800" width="95.72802734375" height="90"/></g><g transform="translate(-150,-214) scale(1,1)"><path fill="none" stroke="#000000" d="M 160 800 L 255.72802734375 800 L 255.72802734375 890 L 160 890 L 160 800 Z Z" stroke-miterlimit="10"/></g><g transform="translate(-150,-214) scale(1,1)"><path fill="none" stroke="#000000" d="M 160 838 L 255.72802734375 838" stroke-miterlimit="10"/></g><g transform="translate(-150,-214) scale(1,1)"><g><path fill="none" stroke="none"/><text fill="#000000" stroke="none" font-family="Arial" font-size="13px" font-style="normal" font-weight="normal" text-decoration="none" x="164.5" y="817.5">«enumeration»</text></g></g><g transform="translate(-150,-214) scale(1,1)"><g><path fill="none" stroke="none"/><text fill="#000000" stroke="none" font-family="Arial" font-size="13px" font-style="normal" font-weight="bold" text-decoration="none" x="175.344970703125" y="832.5">GateStatus</text></g></g><g transform="translate(-150,-214) scale(1,1)"><g><path fill="none" stroke="none"/><text fill="#000000" stroke="none" font-family="Arial" font-size="13px" font-style="normal" font-weight="normal" text-decoration="none" x="165" y="855.5">Libero</text></g></g><g transform="translate(-150,-214) scale(1,1)"><g><path fill="none" stroke="none"/><text fill="#000000" stroke="none" font-family="Arial" font-size="13px" font-style="normal" font-weight="normal" text-decoration="none" x="165" y="870.5">Chiuso</text></g></g><g transform="translate(-150,-214) scale(1,1)"><g><path fill="none" stroke="none"/><text fill="#000000" stroke="none" font-family="Arial" font-size="13px" font-style="normal" font-weight="normal" text-decoration="none" x="165" y="885.5">Occupato</text></g></g></g></svg>