<svg version="1.1" xmlns="http://www.w3.org/2000/svg" xmlns:xlink="http://www.w3.org/1999/xlink" width="1320.39599609375" height="672"><defs/><g><g transform="translate(-150,-214) scale(1,1)"><rect fill="#C0C0C0" stroke="none" x="727" y="287" width="137.01953125" height="57" opacity="0.2"/></g><g transform="translate(-150,-214) scale(1,1)"><rect fill="#ffffff" stroke="none" x="720" y="280" width="137.01953125" height="57"/></g><g transform="translate(-150,-214) scale(1,1)"><path fill="none" stroke="#000000" d="M 720 280 L 857.01953125 280 L 857.01953125 337 L 720 337 L 720 280 Z Z" stroke-miterlimit="10"/></g><g transform="translate(-150,-214) scale(1,1)"><path fill="none" stroke="#000000" d="M 720 305 L 857.01953125 305" stroke-miterlimit="10"/></g><g transform="translate(-150,-214) scale(1,1)"><path fill="none" stroke="#000000" d="M 720 328 L 857.01953125 328" stroke-miterlimit="10"/></g><g transform="translate(-150,-214) scale(1,1)"><g><path fill="none" stroke="none"/><text fill="#000000" stroke="none" font-family="Arial" font-size="13px" font-style="normal" font-weight="bold" text-decoration="none" x="774.41796875" y="299.5">Gate</text></g></g><g transform="translate(-150,-214) scale(1,1)"><g><path fill="none" stroke="none"/><text fill="#000000" stroke="none" font-family="Arial" font-size="13px" font-style="normal" font-weight="normal" text-decoration="none" x="725" y="322.5">+CodiceGate: Varchar</text></g></g><g transform="translate(-150,-214) scale(1,1)"><rect fill="#C0C0C0" stroke="none" x="687" y="447" width="167.1328125" height="147" opacity="0.2"/></g><g transform="translate(-150,-214) scale(1,1)"><rect fill="#ffffff" stroke="none" x="680" y="440" width="167.1328125" height="147"/></g><g transform="translate(-150,-214) scale(1,1)"><path fill="none" stroke="#000000" d="M 680 440 L 847.1328125 440 L 847.1328125 587 L 680 587 L 680 440 Z Z" stroke-miterlimit="10"/></g><g transform="translate(-150,-214) scale(1,1)"><path fill="none" stroke="#000000" d="M 680 465 L 847.1328125 465" stroke-miterlimit="10"/></g><g transform="translate(-150,-214) scale(1,1)"><path fill="none" stroke="#000000" d="M 680 578 L 847.1328125 578" stroke-miterlimit="10"/></g><g transform="translate(-150,-214) scale(1,1)"><g><path fill="none" stroke="none"/><text fill="#000000" stroke="none" font-family="Arial" font-size="13px" font-style="normal" font-weight="bold" text-decoration="none" x="746.830810546875" y="459.5">Tratta</text></g></g><g transform="translate(-150,-214) scale(1,1)"><g><path fill="none" stroke="none"/><text fill="#000000" stroke="none" font-family="Arial" font-size="13px" font-style="normal" font-weight="normal" text-decoration="none" x="685" y="482.5">+NumeroVolo: Varchar</text></g></g><g transform="translate(-150,-214) scale(1,1)"><g><path fill="none" stroke="none"/><text fill="#000000" stroke="none" font-family="Arial" font-size="13px" font-style="normal" font-weight="normal" text-decoration="none" x="685" y="497.5">+DataPartenza: Date</text></g></g><g transform="translate(-150,-214) scale(1,1)"><g><path fill="none" stroke="none"/><text fill="#000000" stroke="none" font-family="Arial" font-size="13px" font-style="normal" font-weight="normal" text-decoration="none" x="685" y="512.5">+OraPartenza: Time</text></g></g><g transform="translate(-150,-214) scale(1,1)"><g><path fill="none" stroke="none"/><text fill="#000000" stroke="none" font-family="Arial" font-size="13px" font-style="normal" font-weight="normal" text-decoration="none" x="685" y="527.5">+DurataVolo: Int</text></g></g><g transform="translate(-150,-214) scale(1,1)"><g><path fill="none" stroke="none"/><text fill="#000000" stroke="none" font-family="Arial" font-size="13px" font-style="normal" font-weight="normal" text-decoration="none" x="685" y="542.5">+Ritardo: Int</text></g></g><g transform="translate(-150,-214) scale(1,1)"><g><path fill="none" stroke="none"/><text fill="#000000" stroke="none" font-family="Arial" font-size="13px" font-style="normal" font-weight="normal" text-decoration="none" x="685" y="557.5">+Conclusa: Boolean</text></g></g><g transform="translate(-150,-214) scale(1,1)"><g><path fill="none" stroke="none"/><text fill="#000000" stroke="none" font-family="Arial" font-size="13px" font-style="normal" font-weight="normal" text-decoration="none" x="685" y="572.5">+Posti: Int</text></g></g><g transform="translate(-150,-214) scale(1,1)"><rect fill="#C0C0C0" stroke="none" x="503" y="231" width="144.73828125" height="117" opacity="0.2"/></g><g transform="translate(-150,-214) scale(1,1)"><rect fill="#ffffff" stroke="none" x="496" y="224" width="144.73828125" height="117"/></g><g transform="translate(-150,-214) scale(1,1)"><path fill="none" stroke="#000000" d="M 496 224 L 640.73828125 224 L 640.73828125 341 L 496 341 L 496 224 Z Z" stroke-miterlimit="10"/></g><g transform="translate(-150,-214) scale(1,1)"><path fill="none" stroke="#000000" d="M 496 249 L 640.73828125 249" stroke-miterlimit="10"/></g><g transform="translate(-150,-214) scale(1,1)"><path fill="none" stroke="#000000" d="M 496 332 L 640.73828125 332" stroke-miterlimit="10"/></g><g transform="translate(-150,-214) scale(1,1)"><g><path fill="none" stroke="none"/><text fill="#000000" stroke="none" font-family="Arial" font-size="13px" font-style="normal" font-weight="bold" text-decoration="none" x="529.35009765625" y="243.5">CodaImbarco</text></g></g><g transform="translate(-150,-214) scale(1,1)"><g><path fill="none" stroke="none"/><text fill="#000000" stroke="none" font-family="Arial" font-size="13px" font-style="normal" font-weight="normal" text-decoration="none" x="501" y="266.5">+CodiceCoda: Int</text></g></g><g transform="translate(-150,-214) scale(1,1)"><g><path fill="none" stroke="none"/><text fill="#000000" stroke="none" font-family="Arial" font-size="13px" font-style="normal" font-weight="normal" text-decoration="none" x="501" y="281.5">+OraApertura</text></g></g><g transform="translate(-150,-214) scale(1,1)"><g><path fill="none" stroke="none"/><text fill="#000000" stroke="none" font-family="Arial" font-size="13px" font-style="normal" font-weight="normal" text-decoration="none" x="501" y="296.5">+TempoStimato: Time</text></g></g><g transform="translate(-150,-214) scale(1,1)"><g><path fill="none" stroke="none"/><text fill="#000000" stroke="none" font-family="Arial" font-size="13px" font-style="normal" font-weight="normal" text-decoration="none" x="501" y="311.5">+TempoEffettivo: Time</text></g></g><g transform="translate(-150,-214) scale(1,1)"><g><path fill="none" stroke="none"/><text fill="#000000" stroke="none" font-family="Arial" font-size="13px" font-style="normal" font-weight="normal" text-decoration="none" x="501" y="326.5">+Classe: EnumCoda</text></g></g><g transform="translate(-150,-214) scale(1,1)"><rect fill="#C0C0C0" stroke="none" x="983" y="447" width="161.1279296875" height="117" opacity="0.2"/></g><g transform="translate(-150,-214) scale(1,1)"><rect fill="#ffffff" stroke="none" x="976" y="440" width="161.1279296875" height="117"/></g><g transform="translate(-150,-214) scale(1,1)"><path fill="none" stroke="#000000" d="M 976 440 L 1137.1279296875 440 L 1137.1279296875 557 L 976 557 L 976 440 Z Z" stroke-miterlimit="10"/></g><g transform="translate(-150,-214) scale(1,1)"><path fill="none" stroke="#000000" d="M 976 465 L 1137.1279296875 465" stroke-miterlimit="10"/></g><g transform="translate(-150,-214) scale(1,1)"><path fill="none" stroke="#000000" d="M 976 548 L 1137.1279296875 548" stroke-miterlimit="10"/></g><g transform="translate(-150,-214) scale(1,1)"><g><path fill="none" stroke="none"/><text fill="#000000" stroke="none" font-family="Arial" font-size="13px" font-style="normal" font-weight="bold" text-decoration="none" x="1005.976318359375" y="459.5">CompagniaAerea</text></g></g><g transform="translate(-150,-214) scale(1,1)"><g><path fill="none" stroke="none"/><text fill="#000000" stroke="none" font-family="Arial" font-size="13px" font-style="normal" font-weight="normal" text-decoration="none" x="981" y="482.5">+Nome: Varchar</text></g></g><g transform="translate(-150,-214) scale(1,1)"><g><path fill="none" stroke="none"/><text fill="#000000" stroke="none" font-family="Arial" font-size="13px" font-style="normal" font-weight="normal" text-decoration="none" x="981" y="497.5">+Sigla: Varchar</text></g></g><g transform="translate(-150,-214) scale(1,1)"><g><path fill="none" stroke="none"/><text fill="#000000" stroke="none" font-family="Arial" font-size="13px" font-style="normal" font-weight="normal" text-decoration="none" x="981" y="512.5">+Nazione: Varchar</text></g></g><g transform="translate(-150,-214) scale(1,1)"><g><path fill="none" stroke="none"/><text fill="#000000" stroke="none" font-family="Arial" font-size="13px" font-style="normal" font-weight="normal" text-decoration="none" x="981" y="527.5">+PesoMassimo: Real</text></g></g><g transform="translate(-150,-214) scale(1,1)"><g><path fill="none" stroke="none"/><text fill="#000000" stroke="none" font-family="Arial" font-size="13px" font-style="normal" font-weight="normal" text-decoration="none" x="981" y="542.5">+PrezzoBagagli: Real</text></g></g><g transform="translate(-150,-214) scale(1,1)"><rect fill="#C0C0C0" stroke="none" x="319" y="759" width="125.34619140625" height="105" opacity="0.2"/></g><g transform="translate(-150,-214) scale(1,1)"><rect fill="#ffffff" stroke="none" x="312" y="752" width="125.34619140625" height="105"/></g><g transform="translate(-150,-214) scale(1,1)"><path fill="none" stroke="#000000" d="M 312 752 L 437.34619140625 752 L 437.34619140625 857 L 312 857 L 312 752 Z Z" stroke-miterlimit="10"/></g><g transform="translate(-150,-214) scale(1,1)"><path fill="none" stroke="#000000" d="M 312 790 L 437.34619140625 790" stroke-miterlimit="10"/></g><g transform="translate(-150,-214) scale(1,1)"><g><path fill="none" stroke="none"/><text fill="#000000" stroke="none" font-family="Arial" font-size="13px" font-style="normal" font-weight="normal" text-decoration="none" x="331.30908203125" y="769.5">«enumeration»</text></g></g><g transform="translate(-150,-214) scale(1,1)"><g><path fill="none" stroke="none"/><text fill="#000000" stroke="none" font-family="Arial" font-size="13px" font-style="normal" font-weight="bold" text-decoration="none" x="344.328125" y="784.5">EnumCittà</text></g></g><g transform="translate(-150,-214) scale(1,1)"><g><path fill="none" stroke="none"/><text fill="#000000" stroke="none" font-family="Arial" font-size="13px" font-style="normal" font-weight="normal" text-decoration="none" x="317" y="807.5">Milano</text></g></g><g transform="translate(-150,-214) scale(1,1)"><g><path fill="none" stroke="none"/><text fill="#000000" stroke="none" font-family="Arial" font-size="13px" font-style="normal" font-weight="normal" text-decoration="none" x="317" y="822.5">Napoli</text></g></g><g transform="translate(-150,-214) scale(1,1)"><g><path fill="none" stroke="none"/><text fill="#000000" stroke="none" font-family="Arial" font-size="13px" font-style="normal" font-weight="normal" text-decoration="none" x="317" y="837.5">Londra</text></g></g><g transform="translate(-150,-214) scale(1,1)"><g><path fill="none" stroke="none"/><text fill="#000000" stroke="none" font-family="Arial" font-size="13px" font-style="normal" font-weight="normal" text-decoration="none" x="317" y="852.5">...</text></g></g><g transform="translate(-150,-214) scale(1,1)"><rect fill="#C0C0C0" stroke="none" x="1135" y="663" width="165.9267578125" height="120" opacity="0.2"/></g><g transform="translate(-150,-214) scale(1,1)"><rect fill="#ffffff" stroke="none" x="1128" y="656" width="165.9267578125" height="120"/></g><g transform="translate(-150,-214) scale(1,1)"><path fill="none" stroke="#000000" d="M 1128 656 L 1293.9267578125 656 L 1293.9267578125 776 L 1128 776 L 1128 656 Z Z" stroke-miterlimit="10"/></g><g transform="translate(-150,-214) scale(1,1)"><path fill="none" stroke="#000000" d="M 1128 681 L 1293.9267578125 681" stroke-miterlimit="10"/></g><g transform="translate(-150,-214) scale(1,1)"><path fill="none" stroke="#000000" d="M 1128 764 L 1293.9267578125 764" stroke-miterlimit="10"/></g><g transform="translate(-150,-214) scale(1,1)"><g><path fill="none" stroke="none"/><text fill="#000000" stroke="none" font-family="Arial" font-size="13px" font-style="normal" font-weight="bold" text-decoration="none" x="1177.71435546875" y="675.5">Dipendente</text></g></g><g transform="translate(-150,-214) scale(1,1)"><g><path fill="none" stroke="none"/><text fill="#000000" stroke="none" font-family="Arial" font-size="13px" font-style="normal" font-weight="normal" text-decoration="none" x="1133" y="698.5">+CodiceImpiegato: Varchar</text></g></g><g transform="translate(-150,-214) scale(1,1)"><g><path fill="none" stroke="none"/><text fill="#000000" stroke="none" font-family="Arial" font-size="13px" font-style="normal" font-weight="normal" text-decoration="none" x="1133" y="713.5">+Nome: Varchar</text></g></g><g transform="translate(-150,-214) scale(1,1)"><g><path fill="none" stroke="none"/><text fill="#000000" stroke="none" font-family="Arial" font-size="13px" font-style="normal" font-weight="normal" text-decoration="none" x="1133" y="728.5">+Cognome: Varchar</text></g></g><g transform="translate(-150,-214) scale(1,1)"><g><path fill="none" stroke="none"/><text fill="#000000" stroke="none" font-family="Arial" font-size="13px" font-style="normal" font-weight="normal" text-decoration="none" x="1133" y="743.5">+Email: Varchar</text></g></g><g transform="translate(-150,-214) scale(1,1)"><g><path fill="none" stroke="none"/><text fill="#000000" stroke="none" font-family="Arial" font-size="13px" font-style="normal" font-weight="normal" text-decoration="none" x="1133" y="758.5">+Password: Varchar</text></g></g><g transform="translate(-150,-214) scale(1,1)"><rect fill="#C0C0C0" stroke="none" x="1063" y="831" width="128.9072265625" height="44" opacity="0.2"/></g><g transform="translate(-150,-214) scale(1,1)"><rect fill="#ffffff" stroke="none" x="1056" y="824" width="128.9072265625" height="44"/></g><g transform="translate(-150,-214) scale(1,1)"><path fill="none" stroke="#000000" d="M 1056 824 L 1184.9072265625 824 L 1184.9072265625 868 L 1056 868 L 1056 824 Z Z" stroke-miterlimit="10"/></g><g transform="translate(-150,-214) scale(1,1)"><path fill="none" stroke="#000000" d="M 1056 849 L 1184.9072265625 849" stroke-miterlimit="10"/></g><g transform="translate(-150,-214) scale(1,1)"><path fill="none" stroke="#000000" d="M 1056 859 L 1184.9072265625 859" stroke-miterlimit="10"/></g><g transform="translate(-150,-214) scale(1,1)"><g><path fill="none" stroke="none"/><text fill="#000000" stroke="none" font-family="Arial" font-size="13px" font-style="normal" font-weight="bold" text-decoration="none" x="1072.036865234375" y="843.5">AddettoCheck-In</text></g></g><g transform="translate(-150,-214) scale(1,1)"><path fill="none" stroke="#000000" d="M 1136 823 L 1168 777" stroke-miterlimit="10"/></g><g transform="translate(-150,-214) scale(1,1)"><path fill="#FFFFFF" stroke="none" d="M 1163.304144613248 798.4929975151609 L 1168 777 L 1149.4816845215603 788.8773731035521"/></g><g transform="translate(-150,-214) scale(1,1)"><path fill="none" stroke="#000000" d="M 1163.304144613248 798.4929975151609 L 1168 777 L 1149.4816845215603 788.8773731035521 L 1163.304144613248 798.4929975151609" stroke-miterlimit="10"/></g><g transform="translate(-150,-214) scale(1,1)"><rect fill="#C0C0C0" stroke="none" x="415" y="447" width="155.0849609375" height="132" opacity="0.2"/></g><g transform="translate(-150,-214) scale(1,1)"><rect fill="#ffffff" stroke="none" x="408" y="440" width="155.0849609375" height="132"/></g><g transform="translate(-150,-214) scale(1,1)"><path fill="none" stroke="#000000" d="M 408 440 L 563.0849609375 440 L 563.0849609375 572 L 408 572 L 408 440 Z Z" stroke-miterlimit="10"/></g><g transform="translate(-150,-214) scale(1,1)"><path fill="none" stroke="#000000" d="M 408 465 L 563.0849609375 465" stroke-miterlimit="10"/></g><g transform="translate(-150,-214) scale(1,1)"><path fill="none" stroke="#000000" d="M 408 563 L 563.0849609375 563" stroke-miterlimit="10"/></g><g transform="translate(-150,-214) scale(1,1)"><g><path fill="none" stroke="none"/><text fill="#000000" stroke="none" font-family="Arial" font-size="13px" font-style="normal" font-weight="bold" text-decoration="none" x="462.41796875" y="459.5">Biglietto</text></g></g><g transform="translate(-150,-214) scale(1,1)"><g><path fill="none" stroke="none"/><text fill="#000000" stroke="none" font-family="Arial" font-size="13px" font-style="normal" font-weight="normal" text-decoration="none" x="413" y="482.5">+CodiceBiglietto: Int</text></g></g><g transform="translate(-150,-214) scale(1,1)"><g><path fill="none" stroke="none"/><text fill="#000000" stroke="none" font-family="Arial" font-size="13px" font-style="normal" font-weight="normal" text-decoration="none" x="413" y="497.5">+Prezzo: Real</text></g></g><g transform="translate(-150,-214) scale(1,1)"><g><path fill="none" stroke="none"/><text fill="#000000" stroke="none" font-family="Arial" font-size="13px" font-style="normal" font-weight="normal" text-decoration="none" x="413" y="512.5">+Posto: Int</text></g></g><g transform="translate(-150,-214) scale(1,1)"><g><path fill="none" stroke="none"/><text fill="#000000" stroke="none" font-family="Arial" font-size="13px" font-style="normal" font-weight="normal" text-decoration="none" x="413" y="527.5">+CF: Varchar</text></g></g><g transform="translate(-150,-214) scale(1,1)"><g><path fill="none" stroke="none"/><text fill="#000000" stroke="none" font-family="Arial" font-size="13px" font-style="normal" font-weight="normal" text-decoration="none" x="413" y="542.5">+NomeCliente: Varchar</text></g></g><g transform="translate(-150,-214) scale(1,1)"><g><path fill="none" stroke="none"/><text fill="#000000" stroke="none" font-family="Arial" font-size="13px" font-style="normal" font-weight="normal" text-decoration="none" x="413" y="557.5">+Documento: Varchar</text></g></g><g transform="translate(-150,-214) scale(1,1)"><path fill="none" stroke="#000000" d="M 719 300 L 642 291" stroke-miterlimit="10"/></g><g transform="translate(-150,-214) scale(1,1)"><g><path fill="none" stroke="none"/><text fill="#000000" stroke="none" font-family="Arial" font-size="13px" font-style="normal" font-weight="normal" text-decoration="none" x="669.5" y="315.5">+in</text></g></g><g transform="translate(-150,-214) scale(1,1)"><g><path fill="none" stroke="none"/><text fill="#000000" stroke="none" font-family="Arial" font-size="13px" font-style="normal" font-weight="normal" text-decoration="none" x="694.726806640625" y="291.5">1</text></g></g><g transform="translate(-150,-214) scale(1,1)"><g><path fill="none" stroke="none"/><text fill="#000000" stroke="none" font-family="Arial" font-size="13px" font-style="normal" font-weight="normal" text-decoration="none" x="661.220458984375" y="287.5">*</text></g></g><g transform="translate(-150,-214) scale(1,1)"><path fill="none" stroke="#000000" d="M 784 338 L 772 439" stroke-miterlimit="10"/></g><g transform="translate(-150,-214) scale(1,1)"><g><path fill="none" stroke="none"/><text fill="#000000" stroke="none" font-family="Arial" font-size="13px" font-style="normal" font-weight="normal" text-decoration="none" x="765.5" y="364.5">1</text></g></g><g transform="translate(-150,-214) scale(1,1)"><g><path fill="none" stroke="none"/><text fill="#000000" stroke="none" font-family="Arial" font-size="13px" font-style="normal" font-weight="normal" text-decoration="none" x="759.220458984375" y="422.5">*</text></g></g><g transform="translate(-150,-214) scale(1,1)"><path fill="none" stroke="#000000" d="M 1167 655 L 1098 558" stroke-miterlimit="10"/></g><g transform="translate(-150,-214) scale(1,1)"><g><path fill="none" stroke="none"/><text fill="#000000" stroke="none" font-family="Arial" font-size="13px" font-style="normal" font-weight="normal" text-decoration="none" x="1095.5" y="620.5">+Lavoro</text></g></g><g transform="translate(-150,-214) scale(1,1)"><g><path fill="none" stroke="none"/><text fill="#000000" stroke="none" font-family="Arial" font-size="13px" font-style="normal" font-weight="normal" text-decoration="none" x="1161.726806640625" y="636.5">*</text></g></g><g transform="translate(-150,-214) scale(1,1)"><g><path fill="none" stroke="none"/><text fill="#000000" stroke="none" font-family="Arial" font-size="13px" font-style="normal" font-weight="normal" text-decoration="none" x="1109.5" y="574.5">0..1</text></g></g><g transform="translate(-150,-214) scale(1,1)"><path fill="none" stroke="#000000" d="M 848 509 L 975 502" stroke-miterlimit="10"/></g><g transform="translate(-150,-214) scale(1,1)"><g><path fill="none" stroke="none"/><text fill="#000000" stroke="none" font-family="Arial" font-size="13px" font-style="normal" font-weight="normal" text-decoration="none" x="882.5" y="496.5">+gestisce</text></g></g><g transform="translate(-150,-214) scale(1,1)"><g><path fill="none" stroke="none"/><text fill="#000000" stroke="none" font-family="Arial" font-size="13px" font-style="normal" font-weight="normal" text-decoration="none" x="867.220458984375" y="526.5">*</text></g></g><g transform="translate(-150,-214) scale(1,1)"><g><path fill="none" stroke="none"/><text fill="#000000" stroke="none" font-family="Arial" font-size="13px" font-style="normal" font-weight="normal" text-decoration="none" x="950.5" y="521.5">1</text></g></g><g transform="translate(-150,-214) scale(1,1)"><path fill="none" stroke="#000000" d="M 564 508 L 679 511" stroke-miterlimit="10"/></g><g transform="translate(-150,-214) scale(1,1)"><g><path fill="none" stroke="none"/><text fill="#000000" stroke="none" font-family="Arial" font-size="13px" font-style="normal" font-weight="normal" text-decoration="none" x="607.5" y="500.5">+per</text></g></g><g transform="translate(-150,-214) scale(1,1)"><g><path fill="none" stroke="none"/><text fill="#000000" stroke="none" font-family="Arial" font-size="13px" font-style="normal" font-weight="normal" text-decoration="none" x="582.58544921875" y="527.5">*</text></g></g><g transform="translate(-150,-214) scale(1,1)"><g><path fill="none" stroke="none"/><text fill="#000000" stroke="none" font-family="Arial" font-size="13px" font-style="normal" font-weight="normal" text-decoration="none" x="653.5" y="528.5">1</text></g></g><g transform="translate(-150,-214) scale(1,1)"><rect fill="#C0C0C0" stroke="none" x="167" y="759" width="125.34619140625" height="120" opacity="0.2"/></g><g transform="translate(-150,-214) scale(1,1)"><rect fill="#ffffff" stroke="none" x="160" y="752" width="125.34619140625" height="120"/></g><g transform="translate(-150,-214) scale(1,1)"><path fill="none" stroke="#000000" d="M 160 752 L 285.34619140625 752 L 285.34619140625 872 L 160 872 L 160 752 Z Z" stroke-miterlimit="10"/></g><g transform="translate(-150,-214) scale(1,1)"><path fill="none" stroke="#000000" d="M 160 790 L 285.34619140625 790" stroke-miterlimit="10"/></g><g transform="translate(-150,-214) scale(1,1)"><g><path fill="none" stroke="none"/><text fill="#000000" stroke="none" font-family="Arial" font-size="13px" font-style="normal" font-weight="normal" text-decoration="none" x="179.30908203125" y="769.5">«enumeration»</text></g></g><g transform="translate(-150,-214) scale(1,1)"><g><path fill="none" stroke="none"/><text fill="#000000" stroke="none" font-family="Arial" font-size="13px" font-style="normal" font-weight="bold" text-decoration="none" x="190.154052734375" y="784.5">EnumCoda</text></g></g><g transform="translate(-150,-214) scale(1,1)"><g><path fill="none" stroke="none"/><text fill="#000000" stroke="none" font-family="Arial" font-size="13px" font-style="normal" font-weight="normal" text-decoration="none" x="165" y="807.5">Famiglie</text></g></g><g transform="translate(-150,-214) scale(1,1)"><g><path fill="none" stroke="none"/><text fill="#000000" stroke="none" font-family="Arial" font-size="13px" font-style="normal" font-weight="normal" text-decoration="none" x="165" y="822.5">DiversamenteAbili</text></g></g><g transform="translate(-150,-214) scale(1,1)"><g><path fill="none" stroke="none"/><text fill="#000000" stroke="none" font-family="Arial" font-size="13px" font-style="normal" font-weight="normal" text-decoration="none" x="165" y="837.5">Priority</text></g></g><g transform="translate(-150,-214) scale(1,1)"><g><path fill="none" stroke="none"/><text fill="#000000" stroke="none" font-family="Arial" font-size="13px" font-style="normal" font-weight="normal" text-decoration="none" x="165" y="852.5">BusinessClass</text></g></g><g transform="translate(-150,-214) scale(1,1)"><g><path fill="none" stroke="none"/><text fill="#000000" stroke="none" font-family="Arial" font-size="13px" font-style="normal" font-weight="normal" text-decoration="none" x="165" y="867.5">Economy</text></g></g><g transform="translate(-150,-214) scale(1,1)"><rect fill="#C0C0C0" stroke="none" x="1239" y="839" width="108.6708984375" height="44" opacity="0.2"/></g><g transform="translate(-150,-214) scale(1,1)"><rect fill="#ffffff" stroke="none" x="1232" y="832" width="108.6708984375" height="44"/></g><g transform="translate(-150,-214) scale(1,1)"><path fill="none" stroke="#000000" d="M 1232 832 L 1340.6708984375 832 L 1340.6708984375 876 L 1232 876 L 1232 832 Z Z" stroke-miterlimit="10"/></g><g transform="translate(-150,-214) scale(1,1)"><path fill="none" stroke="#000000" d="M 1232 857 L 1340.6708984375 857" stroke-miterlimit="10"/></g><g transform="translate(-150,-214) scale(1,1)"><path fill="none" stroke="#000000" d="M 1232 867 L 1340.6708984375 867" stroke-miterlimit="10"/></g><g transform="translate(-150,-214) scale(1,1)"><g><path fill="none" stroke="none"/><text fill="#000000" stroke="none" font-family="Arial" font-size="13px" font-style="normal" font-weight="bold" text-decoration="none" x="1240.4482421875" y="851.5">AddettoImbarco</text></g></g><g transform="translate(-150,-214) scale(1,1)"><path fill="none" stroke="#000000" d="M 1273 831 L 1244 777" stroke-miterlimit="10"/></g><g transform="translate(-150,-214) scale(1,1)"><path fill="#FFFFFF" stroke="none" d="M 1261.0335877622417 790.9232499060389 L 1244 777 L 1246.199340989902 798.8897898393324"/></g><g transform="translate(-150,-214) scale(1,1)"><path fill="none" stroke="#000000" d="M 1261.0335877622417 790.9232499060389 L 1244 777 L 1246.199340989902 798.8897898393324 L 1261.0335877622417 790.9232499060389" stroke-miterlimit="10"/></g><g transform="translate(-150,-214) scale(1,1)"><rect fill="#C0C0C0" stroke="none" x="1351" y="791" width="116.39599609375" height="44" opacity="0.2"/></g><g transform="translate(-150,-214) scale(1,1)"><rect fill="#ffffff" stroke="none" x="1344" y="784" width="116.39599609375" height="44"/></g><g transform="translate(-150,-214) scale(1,1)"><path fill="none" stroke="#000000" d="M 1344 784 L 1460.39599609375 784 L 1460.39599609375 828 L 1344 828 L 1344 784 Z Z" stroke-miterlimit="10"/></g><g transform="translate(-150,-214) scale(1,1)"><path fill="none" stroke="#000000" d="M 1344 809 L 1460.39599609375 809" stroke-miterlimit="10"/></g><g transform="translate(-150,-214) scale(1,1)"><path fill="none" stroke="#000000" d="M 1344 819 L 1460.39599609375 819" stroke-miterlimit="10"/></g><g transform="translate(-150,-214) scale(1,1)"><g><path fill="none" stroke="none"/><text fill="#000000" stroke="none" font-family="Arial" font-size="13px" font-style="normal" font-weight="bold" text-decoration="none" x="1352.330810546875" y="803.5">ResponsabileVoli</text></g></g><g transform="translate(-150,-214) scale(1,1)"><path fill="none" stroke="#000000" d="M 1353 783 L 1295 756" stroke-miterlimit="10"/></g><g transform="translate(-150,-214) scale(1,1)"><path fill="#FFFFFF" stroke="none" d="M 1316.9796794594954 756.9453522400855 L 1295 756 L 1309.8735154145415 772.2104453736903"/></g><g transform="translate(-150,-214) scale(1,1)"><path fill="none" stroke="#000000" d="M 1316.9796794594954 756.9453522400855 L 1295 756 L 1309.8735154145415 772.2104453736903 L 1316.9796794594954 756.9453522400855" stroke-miterlimit="10"/></g><g transform="translate(-150,-214) scale(1,1)"><rect fill="#C0C0C0" stroke="none" x="919" y="831" width="114.14892578125" height="44" opacity="0.2"/></g><g transform="translate(-150,-214) scale(1,1)"><rect fill="#ffffff" stroke="none" x="912" y="824" width="114.14892578125" height="44"/></g><g transform="translate(-150,-214) scale(1,1)"><path fill="none" stroke="#000000" d="M 912 824 L 1026.14892578125 824 L 1026.14892578125 868 L 912 868 L 912 824 Z Z" stroke-miterlimit="10"/></g><g transform="translate(-150,-214) scale(1,1)"><path fill="none" stroke="#000000" d="M 912 849 L 1026.14892578125 849" stroke-miterlimit="10"/></g><g transform="translate(-150,-214) scale(1,1)"><path fill="none" stroke="#000000" d="M 912 859 L 1026.14892578125 859" stroke-miterlimit="10"/></g><g transform="translate(-150,-214) scale(1,1)"><g><path fill="none" stroke="none"/><text fill="#000000" stroke="none" font-family="Arial" font-size="13px" font-style="normal" font-weight="bold" text-decoration="none" x="934.993896484375" y="843.5">TicketAgent</text></g></g><g transform="translate(-150,-214) scale(1,1)"><path fill="none" stroke="#000000" d="M 1012 823 L 1127 761" stroke-miterlimit="10"/></g><g transform="translate(-150,-214) scale(1,1)"><path fill="#FFFFFF" stroke="none" d="M 1113.1044203320039 778.056167966175 L 1127 761 L 1105.113809358303 763.2348734181812"/></g><g transform="translate(-150,-214) scale(1,1)"><path fill="none" stroke="#000000" d="M 1113.1044203320039 778.056167966175 L 1127 761 L 1105.113809358303 763.2348734181812 L 1113.1044203320039 778.056167966175" stroke-miterlimit="10"/></g><g transform="translate(-150,-214) scale(1,1)"><rect fill="#C0C0C0" stroke="none" x="167" y="471" width="159.43310546875" height="87" opacity="0.2"/></g><g transform="translate(-150,-214) scale(1,1)"><rect fill="#ffffff" stroke="none" x="160" y="464" width="159.43310546875" height="87"/></g><g transform="translate(-150,-214) scale(1,1)"><path fill="none" stroke="#000000" d="M 160 464 L 319.43310546875 464 L 319.43310546875 551 L 160 551 L 160 464 Z Z" stroke-miterlimit="10"/></g><g transform="translate(-150,-214) scale(1,1)"><path fill="none" stroke="#000000" d="M 160 489 L 319.43310546875 489" stroke-miterlimit="10"/></g><g transform="translate(-150,-214) scale(1,1)"><path fill="none" stroke="#000000" d="M 160 542 L 319.43310546875 542" stroke-miterlimit="10"/></g><g transform="translate(-150,-214) scale(1,1)"><g><path fill="none" stroke="none"/><text fill="#000000" stroke="none" font-family="Arial" font-size="13px" font-style="normal" font-weight="bold" text-decoration="none" x="214.41796875" y="483.5">Bagaglio</text></g></g><g transform="translate(-150,-214) scale(1,1)"><g><path fill="none" stroke="none"/><text fill="#000000" stroke="none" font-family="Arial" font-size="13px" font-style="normal" font-weight="normal" text-decoration="none" x="165" y="506.5">+CodiceBagaglio: Varchar</text></g></g><g transform="translate(-150,-214) scale(1,1)"><g><path fill="none" stroke="none"/><text fill="#000000" stroke="none" font-family="Arial" font-size="13px" font-style="normal" font-weight="normal" text-decoration="none" x="165" y="521.5">+Peso: Real</text></g></g><g transform="translate(-150,-214) scale(1,1)"><g><path fill="none" stroke="none"/><text fill="#000000" stroke="none" font-family="Arial" font-size="13px" font-style="normal" font-weight="normal" text-decoration="none" x="165" y="536.5">+Prezzo: Real</text></g></g><g transform="translate(-150,-214) scale(1,1)"><path fill="none" stroke="#000000" d="M 320 507 L 407 506" stroke-miterlimit="10"/></g><g transform="translate(-150,-214) scale(1,1)"><g><path fill="none" stroke="none"/><text fill="#000000" stroke="none" font-family="Arial" font-size="13px" font-style="normal" font-weight="normal" text-decoration="none" x="331.5" y="525.5">0..*</text></g></g><g transform="translate(-150,-214) scale(1,1)"><g><path fill="none" stroke="none"/><text fill="#000000" stroke="none" font-family="Arial" font-size="13px" font-style="normal" font-weight="normal" text-decoration="none" x="381.5" y="524.5">1</text></g></g><g transform="translate(-150,-214) scale(1,1)"><rect fill="#C0C0C0" stroke="none" x="663" y="687" width="173.15673828125" height="87" opacity="0.2"/></g><g transform="translate(-150,-214) scale(1,1)"><rect fill="#ffffff" stroke="none" x="656" y="680" width="173.15673828125" height="87"/></g><g transform="translate(-150,-214) scale(1,1)"><path fill="none" stroke="#000000" d="M 656 680 L 829.15673828125 680 L 829.15673828125 767 L 656 767 L 656 680 Z Z" stroke-miterlimit="10"/></g><g transform="translate(-150,-214) scale(1,1)"><path fill="none" stroke="#000000" d="M 656 705 L 829.15673828125 705" stroke-miterlimit="10"/></g><g transform="translate(-150,-214) scale(1,1)"><path fill="none" stroke="#000000" d="M 656 758 L 829.15673828125 758" stroke-miterlimit="10"/></g><g transform="translate(-150,-214) scale(1,1)"><g><path fill="none" stroke="none"/><text fill="#000000" stroke="none" font-family="Arial" font-size="13px" font-style="normal" font-weight="bold" text-decoration="none" x="714.032958984375" y="699.5">Aeroporto</text></g></g><g transform="translate(-150,-214) scale(1,1)"><g><path fill="none" stroke="none"/><text fill="#000000" stroke="none" font-family="Arial" font-size="13px" font-style="normal" font-weight="normal" text-decoration="none" x="661" y="722.5">+CodiceAereoporto: Varchar</text></g></g><g transform="translate(-150,-214) scale(1,1)"><g><path fill="none" stroke="none"/><text fill="#000000" stroke="none" font-family="Arial" font-size="13px" font-style="normal" font-weight="normal" text-decoration="none" x="661" y="737.5">+Nome: Varchar</text></g></g><g transform="translate(-150,-214) scale(1,1)"><g><path fill="none" stroke="none"/><text fill="#000000" stroke="none" font-family="Arial" font-size="13px" font-style="normal" font-weight="normal" text-decoration="none" x="661" y="752.5">+Città: EnumCittà</text></g></g><g transform="translate(-150,-214) scale(1,1)"><path fill="none" stroke="#000000" d="M 788 588 L 808 648 L 781 679" stroke-miterlimit="10"/></g><g transform="translate(-150,-214) scale(1,1)"><g><path fill="none" stroke="none"/><text fill="#000000" stroke="none" font-family="Arial" font-size="13px" font-style="normal" font-weight="normal" text-decoration="none" x="804.725341796875" y="631.5">+Arrivo</text></g></g><g transform="translate(-150,-214) scale(1,1)"><g><path fill="none" stroke="none"/><text fill="#000000" stroke="none" font-family="Arial" font-size="13px" font-style="normal" font-weight="normal" text-decoration="none" x="779.220458984375" y="618.5">*</text></g></g><g transform="translate(-150,-214) scale(1,1)"><g><path fill="none" stroke="none"/><text fill="#000000" stroke="none" font-family="Arial" font-size="13px" font-style="normal" font-weight="normal" text-decoration="none" x="781.5" y="660.5">1</text></g></g><g transform="translate(-150,-214) scale(1,1)"><path fill="none" stroke="#000000" d="M 731 588 L 712 632 L 727 679" stroke-miterlimit="10"/></g><g transform="translate(-150,-214) scale(1,1)"><g><path fill="none" stroke="none"/><text fill="#000000" stroke="none" font-family="Arial" font-size="13px" font-style="normal" font-weight="normal" text-decoration="none" x="646.5" y="647.5">+Partenza</text></g></g><g transform="translate(-150,-214) scale(1,1)"><g><path fill="none" stroke="none"/><text fill="#000000" stroke="none" font-family="Arial" font-size="13px" font-style="normal" font-weight="normal" text-decoration="none" x="727.220458984375" y="613.5">*</text></g></g><g transform="translate(-150,-214) scale(1,1)"><g><path fill="none" stroke="none"/><text fill="#000000" stroke="none" font-family="Arial" font-size="13px" font-style="normal" font-weight="normal" text-decoration="none" x="704.5" y="668.5">1</text></g></g><g transform="translate(-150,-214) scale(1,1)"><rect fill="#C0C0C0" stroke="none" x="879" y="743" width="144" height="44" opacity="0.2"/></g><g transform="translate(-150,-214) scale(1,1)"><rect fill="#ffffff" stroke="none" x="872" y="736" width="144" height="44"/></g><g transform="translate(-150,-214) scale(1,1)"><path fill="none" stroke="#000000" d="M 872 736 L 1016 736 L 1016 780 L 872 780 L 872 736 Z Z" stroke-miterlimit="10"/></g><g transform="translate(-150,-214) scale(1,1)"><path fill="none" stroke="#000000" d="M 872 761 L 1016 761" stroke-miterlimit="10"/></g><g transform="translate(-150,-214) scale(1,1)"><path fill="none" stroke="#000000" d="M 872 771 L 1016 771" stroke-miterlimit="10"/></g><g transform="translate(-150,-214) scale(1,1)"><g><path fill="none" stroke="none"/><text fill="#000000" stroke="none" font-family="Arial" font-size="13px" font-style="normal" font-weight="bold" text-decoration="none" x="900.29638671875" y="755.5">Amministratore</text></g></g><g transform="translate(-150,-214) scale(1,1)"><path fill="none" stroke="#000000" d="M 1017 746 L 1127 729" stroke-miterlimit="10"/></g><g transform="translate(-150,-214) scale(1,1)"><path fill="#FFFFFF" stroke="none" d="M 1108.1989737291767 740.424596761541 L 1127 729 L 1105.627256988227 723.784076673042"/></g><g transform="translate(-150,-214) scale(1,1)"><path fill="none" stroke="#000000" d="M 1108.1989737291767 740.424596761541 L 1127 729 L 1105.627256988227 723.784076673042 L 1108.1989737291767 740.424596761541" stroke-miterlimit="10"/></g><g transform="translate(-150,-214) scale(1,1)"><rect fill="#C0C0C0" stroke="none" x="295" y="303" width="129.326171875" height="72" opacity="0.2"/></g><g transform="translate(-150,-214) scale(1,1)"><rect fill="#ffffff" stroke="none" x="288" y="296" width="129.326171875" height="72"/></g><g transform="translate(-150,-214) scale(1,1)"><path fill="none" stroke="#000000" d="M 288 296 L 417.326171875 296 L 417.326171875 368 L 288 368 L 288 296 Z Z" stroke-miterlimit="10"/></g><g transform="translate(-150,-214) scale(1,1)"><path fill="none" stroke="#000000" d="M 288 321 L 417.326171875 321" stroke-miterlimit="10"/></g><g transform="translate(-150,-214) scale(1,1)"><path fill="none" stroke="#000000" d="M 288 359 L 417.326171875 359" stroke-miterlimit="10"/></g><g transform="translate(-150,-214) scale(1,1)"><g><path fill="none" stroke="none"/><text fill="#000000" stroke="none" font-family="Arial" font-size="13px" font-style="normal" font-weight="bold" text-decoration="none" x="307.150390625" y="315.5">CartaDiImbarco</text></g></g><g transform="translate(-150,-214) scale(1,1)"><g><path fill="none" stroke="none"/><text fill="#000000" stroke="none" font-family="Arial" font-size="13px" font-style="normal" font-weight="normal" text-decoration="none" x="293" y="338.5">+Imbarcato: Boolean</text></g></g><g transform="translate(-150,-214) scale(1,1)"><g><path fill="none" stroke="none"/><text fill="#000000" stroke="none" font-family="Arial" font-size="13px" font-style="normal" font-weight="normal" text-decoration="none" x="293" y="353.5">+CheckIn: Boolean</text></g></g><g transform="translate(-150,-214) scale(1,1)"><path fill="none" stroke="#000000" d="M 380 369 L 434 439" stroke-miterlimit="10"/></g><g transform="translate(-150,-214) scale(1,1)"><path fill="#FFFFFF" stroke="none" d="M 414.9191632568514 428.04912472989895 L 434 439 L 428.2512491116227 417.76437278478966"/></g><g transform="translate(-150,-214) scale(1,1)"><path fill="none" stroke="#000000" d="M 414.9191632568514 428.04912472989895 L 434 439 L 428.2512491116227 417.76437278478966 L 414.9191632568514 428.04912472989895" stroke-miterlimit="10"/></g><g transform="translate(-150,-214) scale(1,1)"><path fill="none" stroke="#000000" d="M 510 439 L 546 342" stroke-miterlimit="10"/></g><g transform="translate(-150,-214) scale(1,1)"><g><path fill="none" stroke="none"/><text fill="#000000" stroke="none" font-family="Arial" font-size="13px" font-style="normal" font-weight="normal" text-decoration="none" x="526.220458984375" y="429.5">*</text></g></g><g transform="translate(-150,-214) scale(1,1)"><g><path fill="none" stroke="none"/><text fill="#000000" stroke="none" font-family="Arial" font-size="13px" font-style="normal" font-weight="normal" text-decoration="none" x="546.5" y="372.5">1</text></g></g><g transform="translate(-150,-214) scale(1,1)"><path fill="none" stroke="#000000" d="M 619 342 L 701 439" stroke-miterlimit="10"/></g><g transform="translate(-150,-214) scale(1,1)"><g><path fill="none" stroke="none"/><text fill="#000000" stroke="none" font-family="Arial" font-size="13px" font-style="normal" font-weight="normal" text-decoration="none" x="620.220458984375" y="372.5">*</text></g></g><g transform="translate(-150,-214) scale(1,1)"><g><path fill="none" stroke="none"/><text fill="#000000" stroke="none" font-family="Arial" font-size="13px" font-style="normal" font-weight="normal" text-decoration="none" x="673.5" y="436.5">1</text></g></g></g></svg>